<svg width="28" height="28" viewBox="0 0 28 28" fill="none" xmlns="http://www.w3.org/2000/svg">
<path d="M1.47454 0.0621713C1.33572 0.0134441 1.18868 -0.00697562 1.04197 0.00209793C0.895254 0.0111715 0.751789 0.0495572 0.6199 0.115027C0.488011 0.180497 0.370325 0.271747 0.273675 0.383479C0.177024 0.495211 0.103334 0.6252 0.0568812 0.7659C0.010429 0.9066 -0.00786001 1.05521 0.00307635 1.2031C0.0140127 1.35099 0.0539565 1.49521 0.120589 1.6274C0.187221 1.75959 0.279214 1.8771 0.391229 1.97313C0.503243 2.06915 0.633047 2.14177 0.773105 2.18677L1.16526 2.31965C2.16563 2.65559 2.82859 2.88104 3.31545 3.10947C3.77716 3.32596 3.97694 3.50065 4.1042 3.67982C4.23295 3.85898 4.33358 4.10384 4.39129 4.61446C4.45196 5.15345 4.45344 5.85817 4.45344 6.92271V10.9121C4.45344 12.9531 4.45344 14.5999 4.62658 15.8944C4.80416 17.2381 5.18892 18.3699 6.07978 19.2687C6.96915 20.1675 8.09234 20.5527 9.42419 20.7334C10.7057 20.908 12.338 20.908 14.3609 20.908H24.8011C25.0955 20.908 25.3778 20.7901 25.5859 20.5801C25.794 20.3701 25.911 20.0852 25.911 19.7883C25.911 19.4913 25.794 19.2065 25.5859 18.9965C25.3778 18.7865 25.0955 18.6685 24.8011 18.6685H14.4423C12.3187 18.6685 10.8374 18.6655 9.71868 18.5147C8.63396 18.3669 8.05831 18.0966 7.6484 17.6846C7.30064 17.3337 7.05646 16.8619 6.8996 16.0557H21.8755C23.2946 16.0557 24.0035 16.0557 24.5599 15.6854C25.1163 15.3151 25.396 14.6582 25.9554 13.3413L26.5887 11.8483C27.7874 9.0264 28.3867 7.61697 27.7282 6.61066C27.0697 5.60435 25.5499 5.60435 22.5074 5.60435H6.66579C6.66168 5.18892 6.63847 4.7739 6.59624 4.36064C6.51485 3.63652 6.33579 2.97211 5.90516 2.37042C5.47452 1.76723 4.90627 1.38501 4.25218 1.07893C3.6351 0.789283 2.85227 0.526508 1.92589 0.212968L1.47454 0.0621713ZM9.26289 23.5209C9.8516 23.5209 10.4162 23.7568 10.8325 24.1768C11.2488 24.5968 11.4826 25.1665 11.4826 25.7604C11.4826 26.3544 11.2488 26.924 10.8325 27.344C10.4162 27.764 9.8516 28 9.26289 28C8.67418 28 8.10958 27.764 7.69329 27.344C7.27701 26.924 7.04315 26.3544 7.04315 25.7604C7.04315 25.1665 7.27701 24.5968 7.69329 24.1768C8.10958 23.7568 8.67418 23.5209 9.26289 23.5209ZM22.5814 23.5209C23.1701 23.5209 23.7347 23.7568 24.151 24.1768C24.5672 24.5968 24.8011 25.1665 24.8011 25.7604C24.8011 26.3544 24.5672 26.924 24.151 27.344C23.7347 27.764 23.1701 28 22.5814 28C21.9926 28 21.428 27.764 21.0118 27.344C20.5955 26.924 20.3616 26.3544 20.3616 25.7604C20.3616 25.1665 20.5955 24.5968 21.0118 24.1768C21.428 23.7568 21.9926 23.5209 22.5814 23.5209Z" fill="#85B839"/>
</svg>
